<svg width="41" height="40" viewBox="0 0 41 40" fill="none" xmlns="http://www.w3.org/2000/svg">
<rect x="0.5" width="40" height="40" rx="20" fill="#191717"/>
<path fill-rule="evenodd" clip-rule="evenodd" d="M20.4953 7C17.2456 7.00169 14.1026 8.15263 11.6281 10.247C9.15362 12.3414 7.50906 15.2427 6.98849 18.4321C6.46792 21.6215 7.10527 24.8911 8.78661 27.6561C10.4679 30.4211 13.0836 32.5013 16.1659 33.5248C16.8459 33.651 17.102 33.2295 17.102 32.8712C17.102 32.5128 17.0884 31.4738 17.0839 30.3379C13.2759 31.1606 12.4712 28.731 12.4712 28.731C11.8501 27.1533 10.9525 26.7386 10.9525 26.7386C9.7104 25.8957 11.0455 25.9115 11.0455 25.9115C12.4214 26.0084 13.1444 27.3156 13.1444 27.3156C14.3639 29.3958 16.3472 28.7941 17.127 28.4425C17.2494 27.5613 17.6052 26.9618 17.9974 26.6214C14.9555 26.2789 11.7595 25.1114 11.7595 19.8961C11.7406 18.5436 12.2454 17.2356 13.1694 16.2428C13.0288 15.9002 12.5596 14.5164 13.3031 12.6367C13.3031 12.6367 14.4523 12.2716 17.068 14.0318C19.3117 13.4217 21.6788 13.4217 23.9225 14.0318C26.5359 12.2716 27.6829 12.6367 27.6829 12.6367C28.4286 14.5119 27.9594 15.8957 27.8189 16.2428C28.7458 17.2358 29.2516 18.546 29.231 19.9007C29.231 25.1272 26.0282 26.2789 22.9818 26.6147C23.4714 27.0384 23.9089 27.8655 23.9089 29.1367C23.9089 30.9577 23.893 32.4227 23.893 32.8712C23.893 33.234 24.1401 33.6577 24.8337 33.5248C27.9163 32.5012 30.5322 30.4206 32.2135 27.6551C33.8948 24.8896 34.5319 21.6196 34.0107 18.4299C33.4895 15.2402 31.8442 12.3389 29.3689 10.2449C26.8936 8.15081 23.7498 7.00062 20.4998 7H20.4953Z" fill="white"/>
<path d="M11.9904 26.5426C11.9609 26.6102 11.8521 26.6305 11.7637 26.5831C11.6753 26.5358 11.6096 26.4479 11.6414 26.3781C11.6731 26.3082 11.7796 26.2902 11.868 26.3375C11.9564 26.3848 12.0244 26.475 11.9904 26.5426Z" fill="white"/>
<path d="M12.5456 27.1578C12.4987 27.1813 12.445 27.1879 12.3937 27.1764C12.3424 27.1649 12.2968 27.136 12.2646 27.0947C12.1762 27.0001 12.158 26.8693 12.226 26.8107C12.294 26.7521 12.4164 26.7792 12.5048 26.8738C12.5932 26.9685 12.6136 27.0992 12.5456 27.1578Z" fill="white"/>
<path d="M13.0852 27.9399C13.0014 27.9985 12.8586 27.9399 12.7792 27.8227C12.7573 27.8017 12.7398 27.7764 12.7279 27.7486C12.716 27.7207 12.7099 27.6907 12.7099 27.6604C12.7099 27.6301 12.716 27.6001 12.7279 27.5722C12.7398 27.5444 12.7573 27.5192 12.7792 27.4981C12.8631 27.4418 13.0059 27.4981 13.0852 27.6131C13.1646 27.728 13.1668 27.8813 13.0852 27.9399Z" fill="white"/>
<path d="M13.8174 28.6972C13.7426 28.7806 13.5907 28.758 13.466 28.6453C13.3414 28.5326 13.3119 28.3794 13.3867 28.2982C13.4615 28.2171 13.6134 28.2397 13.7426 28.3501C13.8718 28.4605 13.8967 28.616 13.8174 28.6972Z" fill="white"/>
<path d="M14.8441 29.1389C14.8101 29.2448 14.6559 29.2922 14.5018 29.2471C14.3477 29.202 14.2457 29.0758 14.2751 28.9676C14.3046 28.8594 14.461 28.8098 14.6174 28.8594C14.7738 28.909 14.8735 29.0285 14.8441 29.1389Z" fill="white"/>
<path d="M15.9639 29.2155C15.9639 29.326 15.837 29.4206 15.6738 29.4229C15.5106 29.4251 15.3769 29.335 15.3769 29.2245C15.3769 29.1141 15.5038 29.0194 15.667 29.0172C15.8302 29.0149 15.9639 29.1028 15.9639 29.2155Z" fill="white"/>
<path d="M17.0065 29.042C17.0269 29.1524 16.9136 29.2674 16.7504 29.2944C16.5872 29.3215 16.4444 29.2561 16.424 29.1479C16.4036 29.0397 16.5215 28.9226 16.6801 28.8933C16.8388 28.864 16.9861 28.9316 17.0065 29.042Z" fill="white"/>
</svg>
